<?xml version="1.0" standalone="no"?>
<!DOCTYPE svg PUBLIC "-//W3C//DTD SVG 20010904//EN"
 "http://www.w3.org/TR/2001/REC-SVG-20010904/DTD/svg10.dtd">
<svg version="1.0" xmlns="http://www.w3.org/2000/svg"
 width="500.000000pt" height="500.000000pt" viewBox="0 0 500.000000 500.000000"
 preserveAspectRatio="xMidYMid meet">

<g transform="translate(0.000000,500.000000) scale(0.100000,-0.100000)" fill="rgb(19, 18, 75)">
<path d="M2408 4415 c-62 -17 -104 -48 -131 -98 -20 -39 -22 -54 -20 -197 1
-85 7 -222 13 -305 5 -82 14 -242 20 -355 6 -113 14 -266 19 -340 5 -74 5
-157 1 -185 -7 -46 -7 -47 -9 -12 l-1 37 -47 -2 -48 -1 45 -7 c42 -7 43 -7 10
-8 -19 -1 -58 1 -86 4 l-52 7 -6 47 c-9 66 -26 111 -39 103 -5 -3 -7 -1 -3 5
8 13 -26 77 -42 77 -5 0 -14 4 -19 9 -5 6 -2 6 7 1 13 -8 13 -6 1 8 -7 9 -17
14 -22 11 -5 -3 -9 1 -9 9 0 19 -46 60 -60 52 -6 -4 -9 -1 -8 7 2 7 -5 13 -14
13 -9 0 -20 4 -25 9 -4 5 -3 6 5 2 6 -4 12 -5 12 -2 0 6 -55 36 -65 36 -3 0
-3 -5 1 -12 4 -7 3 -8 -5 -4 -6 4 -9 11 -6 16 6 10 -146 70 -195 77 -41 6 -62
-12 -62 -53 0 -36 10 -43 104 -74 46 -15 92 -31 103 -35 16 -5 17 -5 5 4 -8 6
-10 11 -5 11 14 0 43 -20 30 -20 -12 -1 25 -30 38 -30 4 0 5 6 1 13 -4 7 -3 9
2 4 5 -5 9 -14 9 -20 0 -7 8 -12 17 -12 9 0 20 -4 25 -9 5 -5 2 -6 -7 -1 -17
9 -10 3 35 -35 l30 -25 -20 25 -20 25 22 -19 c12 -10 21 -21 20 -25 -1 -6 52
-101 63 -111 3 -3 6 -24 8 -48 4 -45 -15 -76 -41 -66 -30 11 -333 -88 -322
-106 3 -4 -2 -11 -11 -14 -8 -3 -12 -2 -9 4 8 13 2 13 -29 -1 -14 -7 -23 -15
-21 -19 3 -5 -2 -11 -11 -14 -9 -4 -13 -2 -8 5 4 7 1 10 -7 7 -8 -3 -13 -11
-11 -17 1 -7 -2 -10 -7 -6 -6 3 -34 -6 -62 -21 -40 -20 -49 -28 -38 -36 10 -7
9 -8 -7 -4 -14 4 -42 -8 -88 -38 -88 -58 -92 -62 -26 -32 30 14 56 30 58 35 2
6 10 7 19 4 12 -5 14 -3 8 7 -5 8 -4 11 2 7 15 -9 114 33 107 45 -4 6 2 8 14
4 23 -8 74 13 65 27 -3 5 2 7 13 3 22 -6 148 37 138 47 -4 4 -2 7 4 7 5 0 19
3 29 6 15 5 15 4 3 -5 -20 -14 -6 -14 54 3 142 39 181 44 190 20 10 -25 6 -41
-5 -19 -7 15 -8 12 -4 -14 3 -19 2 -31 -2 -27 -8 8 -44 -86 -47 -121 0 -11 -4
-19 -7 -17 -3 2 -11 -8 -18 -22 -14 -31 -14 -37 -1 -29 6 3 7 -1 4 -9 -3 -9
-10 -14 -14 -11 -5 3 -11 1 -15 -5 -4 -6 11 -10 39 -10 35 0 48 5 56 19 13 25
13 34 0 26 -6 -3 -7 1 -4 9 3 9 9 14 14 11 11 -7 33 42 26 60 -3 9 -2 13 4 10
8 -5 38 81 54 156 5 22 12 27 52 33 26 3 71 6 100 6 52 0 54 -1 55 -27 0 -16
6 -91 12 -168 l12 -140 157 -3 156 -2 6 47 c9 64 28 319 28 363 0 44 14 287
33 585 8 127 15 261 15 298 0 51 4 69 15 73 40 16 283 -60 429 -133 635 -319
966 -1014 815 -1710 -41 -191 -111 -352 -227 -528 -110 -167 -390 -435 -582
-556 -386 -246 -851 -337 -1305 -259 -60 11 -146 31 -190 44 -43 14 -81 24
-82 22 -6 -6 164 -80 258 -111 621 -210 1300 -97 1824 304 90 69 249 225 325
321 177 222 301 471 370 740 78 302 78 658 1 962 -72 286 -225 578 -414 792
-159 180 -462 387 -712 486 -297 118 -693 181 -857 135z m-771 -1011 c-3 -3
-12 -4 -19 -1 -8 3 -5 6 6 6 11 1 17 -2 13 -5z m33 -94 c18 -12 2 -12 -25 0
-13 6 -15 9 -5 9 8 0 22 -4 30 -9z m437 -342 c-3 -8 -6 -5 -6 6 -1 11 2 17 5
13 3 -3 4 -12 1 -19z m-60 -20 c-3 -8 -6 -5 -6 6 -1 11 2 17 5 13 3 -3 4 -12
1 -19z m126 -15 c-7 -2 -21 -2 -30 0 -10 3 -4 5 12 5 17 0 24 -2 18 -5z m110
-40 c-7 -2 -19 -2 -25 0 -7 3 -2 5 12 5 14 0 19 -2 13 -5z m-266 -29 c-3 -3
-12 -4 -19 -1 -8 3 -5 6 6 6 11 1 17 -2 13 -5z m-210 -10 c-3 -3 -12 -4 -19
-1 -8 3 -5 6 6 6 11 1 17 -2 13 -5z m-102 -64 c-3 -5 -14 -10 -23 -9 -14 0
-13 2 3 9 27 11 27 11 20 0z m-220 -80 c-3 -5 -11 -10 -16 -10 -6 0 -7 5 -4
10 3 6 11 10 16 10 6 0 7 -4 4 -10z"/>
<path d="M1477 4301 c-76 -31 -132 -83 -168 -157 -105 -213 47 -454 287 -454
115 0 229 73 281 178 23 48 28 70 28 137 0 67 -5 89 -28 137 -31 62 -84 116
-149 149 -61 32 -185 37 -251 10z"/>
<path d="M1000 3773 c-71 -80 -188 -258 -248 -378 -271 -544 -275 -1181 -10
-1724 164 -336 357 -533 683 -696 375 -187 799 -234 1200 -133 44 11 86 24 95
29 10 6 5 7 -15 2 -61 -16 -385 -8 -485 11 -206 40 -404 121 -580 237 -116 77
-321 278 -402 394 -172 248 -263 520 -275 825 -15 394 114 762 371 1062 36 42
66 80 66 85 0 10 -332 343 -342 343 -3 0 -30 -26 -58 -57z"/>
<path d="M3295 3399 c-27 -11 -52 -23 -55 -27 -3 -4 -11 -7 -17 -8 -30 -2 -34
-5 -28 -14 4 -6 -1 -7 -11 -3 -11 4 -15 3 -10 -5 3 -6 1 -14 -5 -18 -8 -5 -9
-3 -4 5 5 9 2 12 -11 9 -11 -2 -18 -9 -17 -16 2 -7 -4 -9 -14 -5 -10 4 -14 2
-9 -5 3 -6 1 -14 -5 -18 -8 -4 -9 -3 -5 4 12 19 -3 14 -40 -14 -18 -14 -32
-30 -29 -34 3 -4 -3 -7 -13 -6 -10 0 -16 -5 -14 -14 2 -8 0 -12 -4 -8 -4 4
-13 3 -21 -3 -16 -14 -18 -33 -1 -23 7 4 8 3 4 -5 -4 -6 -11 -9 -16 -6 -9 6
-60 -62 -60 -80 0 -5 5 -3 11 5 9 12 10 12 5 -3 -3 -10 -6 -21 -6 -23 0 -3 -4
-3 -9 1 -11 6 -31 -56 -31 -97 0 -15 -4 -29 -9 -32 -5 -4 -43 -9 -84 -12 -65
-6 -76 -10 -81 -28 -9 -34 -8 -36 32 -36 20 0 60 -3 88 -6 l52 -7 12 -59 c7
-38 15 -56 22 -52 7 5 8 2 3 -5 -12 -21 41 -155 58 -144 6 3 7 1 3 -6 -4 -6
-4 -20 -1 -31 5 -16 15 -20 53 -20 37 1 43 3 30 11 -10 5 -18 15 -18 22 0 7 4
6 10 -3 13 -21 12 -6 -2 25 -6 14 -15 25 -20 25 -5 0 -7 4 -4 8 6 9 -38 135
-45 128 -2 -2 -4 10 -4 27 -1 18 -3 41 -5 52 -4 16 1 20 20 22 l25 2 -24 -7
c-18 -6 1 -13 80 -29 57 -12 115 -25 129 -28 19 -5 22 -4 10 4 -18 13 -3 13
25 1 14 -6 15 -9 5 -10 -19 -1 177 -71 207 -73 11 -1 20 -4 18 -7 -2 -3 11
-12 28 -19 18 -7 45 -19 61 -26 16 -7 36 -11 45 -7 9 3 12 1 8 -4 -7 -8 82
-58 90 -51 12 13 -272 171 -288 161 -7 -4 -9 -3 -6 3 4 6 -21 22 -56 37 -69
29 -82 32 -71 14 4 -7 3 -8 -5 -4 -6 4 -9 11 -6 16 3 4 -6 11 -19 14 -13 3
-32 9 -43 12 -15 5 -16 4 -3 -6 13 -10 12 -11 -3 -6 -10 3 -21 6 -23 6 -3 0
-3 4 0 8 6 10 -147 56 -166 50 -25 -9 -38 19 -35 75 1 30 5 53 8 51 4 -2 10 3
13 12 9 22 8 26 -6 18 -7 -4 -8 -3 -4 5 4 6 11 9 16 6 10 -6 45 46 42 65 -1
10 0 11 4 2 4 -9 16 -4 39 17 18 15 51 39 74 51 22 13 38 27 36 31 -3 4 2 10
11 13 10 4 13 2 8 -6 -5 -8 -2 -9 12 -3 10 4 59 22 107 38 60 20 85 32 75 38
-12 8 -4 13 15 10 4 0 7 11 7 25 0 15 -4 23 -11 19 -6 -4 -9 0 -7 11 4 27 -53
28 -117 3z m92 5 c-3 -3 -12 -4 -19 -1 -8 3 -5 6 6 6 11 1 17 -2 13 -5z m-20
-90 c-3 -3 -12 -4 -19 -1 -8 3 -5 6 6 6 11 1 17 -2 13 -5z m-470 -326 c-3 -7
-5 -2 -5 12 0 14 2 19 5 13 2 -7 2 -19 0 -25z m-34 -55 c-7 -2 -21 -2 -30 0
-10 3 -4 5 12 5 17 0 24 -2 18 -5z m-126 -39 c-3 -3 -12 -4 -19 -1 -8 3 -5 6
6 6 11 1 17 -2 13 -5z m573 -104 c8 -5 11 -10 5 -10 -5 0 -17 5 -25 10 -8 5
-10 10 -5 10 6 0 17 -5 25 -10z m260 -106 c0 -2 -16 4 -35 13 -19 9 -35 20
-35 25 0 4 16 -2 35 -13 19 -12 35 -23 35 -25z"/>
<path d="M2728 2953 c12 -2 32 -2 45 0 12 2 2 4 -23 4 -25 0 -35 -2 -22 -4z"/>
<path d="M1220 2286 l0 -186 40 0 40 0 0 75 0 75 125 0 125 0 0 -75 0 -75 40
0 40 0 0 186 0 185 -37 -3 -38 -3 -3 -72 -3 -73 -124 0 -124 0 -3 73 -3 72
-37 3 -38 3 0 -185z"/>
<path d="M1812 2459 c-59 -17 -73 -56 -70 -186 3 -108 4 -114 31 -140 27 -28
28 -28 185 -31 143 -2 160 -1 190 18 44 27 52 54 52 168 0 117 -17 155 -77
171 -46 13 -266 13 -311 0z m290 -76 c15 -13 18 -31 18 -99 0 -113 -1 -114
-146 -114 -64 0 -124 5 -135 10 -16 9 -19 22 -19 97 0 121 2 123 148 123 93 0
119 -3 134 -17z"/>
<path d="M2385 2462 c-61 -21 -84 -67 -85 -170 0 -95 17 -150 54 -173 27 -16
51 -19 172 -19 152 0 194 9 218 44 19 31 30 131 21 201 -5 42 -14 65 -35 88
l-28 32 -149 2 c-81 1 -157 -1 -168 -5z m281 -76 c16 -12 19 -27 19 -101 0
-113 -2 -115 -152 -115 -145 0 -153 6 -153 115 0 109 8 115 153 115 82 0 119
-4 133 -14z"/>
<path d="M2877 2463 c-4 -3 -7 -87 -7 -185 l0 -178 40 0 40 0 0 55 0 55 124 0
c147 0 183 10 202 56 31 74 9 175 -42 194 -28 11 -347 14 -357 3z m321 -75 c7
-7 12 -28 12 -48 0 -56 -10 -60 -142 -60 l-118 0 0 60 0 60 118 0 c78 0 122
-4 130 -12z"/>
<path d="M3406 2449 c-23 -18 -26 -27 -26 -85 0 -99 9 -104 169 -104 141 0
155 -5 149 -57 l-3 -28 -157 -3 -158 -3 0 -34 0 -35 171 0 c94 0 179 4 189 10
44 24 50 149 9 186 -18 16 -41 19 -155 22 -132 4 -134 4 -140 28 -12 48 6 54
162 54 l144 0 0 35 0 35 -164 0 c-150 0 -165 -2 -190 -21z"/>
<path d="M1601 1985 c-11 -20 -18 -42 -14 -52 4 -11 3 -14 -5 -9 -16 10 -62
-96 -55 -126 3 -16 2 -19 -5 -10 -13 20 -33 -39 -26 -81 3 -25 2 -27 -5 -12
-7 17 -9 16 -14 -15 -3 -19 -8 -64 -11 -100 l-6 -65 29 105 c15 58 35 123 43
145 31 81 31 81 19 65 -7 -9 -11 -11 -11 -3 0 7 6 16 14 20 12 7 56 84 56 98
0 3 -5 3 -12 -1 -7 -4 -8 -3 -4 5 4 6 11 9 16 6 5 -3 14 4 20 16 10 17 9 20
-2 14 -7 -4 -2 3 12 14 24 20 24 21 3 21 -14 0 -28 -12 -42 -35z"/>
<path d="M2374 1948 c3 -40 10 -158 16 -263 25 -480 31 -573 36 -617 l6 -48
68 0 67 0 6 78 c4 42 11 154 17 247 13 225 29 468 36 583 l6 92 -132 0 -132 0
6 -72z"/>
<path d="M3388 1931 c28 -53 50 -84 54 -77 4 6 7 -2 7 -19 -1 -16 6 -50 16
-75 10 -25 28 -83 41 -130 l24 -85 -3 65 c-5 83 -35 188 -49 169 -7 -10 -8 -7
-4 10 8 37 -87 231 -114 231 -18 0 -15 -9 28 -89z m-10 44 c-3 -3 -9 2 -12 12
-6 14 -5 15 5 6 7 -7 10 -15 7 -18z m42 -59 c0 -12 -5 -7 -19 24 -11 24 -11
24 3 6 9 -11 16 -24 16 -30z m14 -32 c3 -8 2 -12 -4 -9 -6 3 -10 10 -10 16 0
14 7 11 14 -7z m73 -206 c-3 -8 -6 -5 -6 6 -1 11 2 17 5 13 3 -3 4 -12 1 -19z"/>
</g>
</svg>
